# xmcd CD database file generated by Grip 3.3.1
# 
# Track frame offsets:
#       150
#       15202
#       30453
#       32253
#       57638
#       79296
#       97365
#       109431
#       130325
#       157238
#       170731
#       190926
#       197871
#       213046
#       214335
#       221071
#       234192
#       251911
#       252892
#       264062
#       285377
#       304363
# 
# Disc length: 4217 seconds
# 
# Revision: 1
# Processed by: cddbd v1.5.2PL0 Copyright (c) Steve Scherf et al.
# Submitted via: Grip 3.3.1
# 
DISCID=46107716
DTITLE=Martha Beck - Steering by Starlight [CD6]
DYEAR=2008
DGENRE=Blues
TTITLE0=1
TTITLE1=2
TTITLE2=3
TTITLE3=4
TTITLE4=5
TTITLE5=6
TTITLE6=7
TTITLE7=8
TTITLE8=9
TTITLE9=10
TTITLE10=11
TTITLE11=12
TTITLE12=13
TTITLE13=14
TTITLE14=15
TTITLE15=16
TTITLE16=17
TTITLE17=18
TTITLE18=19
TTITLE19=20
TTITLE20=21
TTITLE21=22
EXTD=
EXTT0=
EXTT1=
EXTT2=
EXTT3=
EXTT4=
EXTT5=
EXTT6=
EXTT7=
EXTT8=
EXTT9=
EXTT10=
EXTT11=
EXTT12=
EXTT13=
EXTT14=
EXTT15=
EXTT16=
EXTT17=
EXTT18=
EXTT19=
EXTT20=
EXTT21=
PLAYORDER=
